<svg width="0" height="0" class="hidden">
  <symbol fill="none" xmlns="http://www.w3.org/2000/svg" viewBox="0 0 24 24" id="left-arrow-alt">
    <path d="M12.7069 17.293L8.41394 13H17.9999V11H8.41394L12.7069 6.70697L11.2929 5.29297L4.58594 12L11.2929 18.707L12.7069 17.293Z" fill="#030C01"></path>
  </symbol>
  <symbol fill="none" xmlns="http://www.w3.org/2000/svg" viewBox="0 0 294 126" id="logo">
    <g clip-path="url(#clip0_8203_61210)">
      <path d="M126.33 2.613C124.705 3.69855 123.52 5.06895 122.452 6.68716C118.514 6.75403 114.81 7.88098 112.013 10.7854C109.348 13.5534 108.439 16.9131 108.563 20.6758L108.575 20.9604C109.07 24.3375 110.432 27.1043 113.185 29.1877C113.837 29.6807 115.286 30.398 116.762 31.1284C118.666 32.0702 120.613 33.0338 120.951 33.5664C122.112 35.2263 125.215 36.1958 127.138 36.5489C130.149 37.1013 132.836 36.8538 135.734 35.9952C139.865 42.3997 141.607 49.1258 142.566 56.6361L142.224 57.2718C141.362 56.5142 140.652 55.3478 139.947 54.1906C139.447 53.369 138.95 52.5519 138.403 51.8892C132.908 45.2221 124.559 40.5062 115.717 41.0038C113.969 41.1019 109.942 41.5089 108.577 42.6767C108.371 44.2958 110.142 46.8478 111.149 48.1369C117.043 55.6818 126.627 57.5374 135.544 59.2641C136.363 59.4226 137.177 59.5801 137.981 59.7408C138.04 59.7526 138.103 59.7645 138.168 59.7769C138.852 59.9068 139.826 60.0919 139.995 60.7525L139.902 60.9945C130.798 59.4623 121.291 60.5673 113.616 66.0692C107.055 70.7721 103.289 78.1955 102.017 86.0495C100.508 95.3717 102.083 105.804 107.695 113.566C112.232 119.841 118.932 123.822 126.561 125.028C134.991 126.36 144.152 124.794 151.12 119.692C157.731 114.851 161.475 107.451 162.687 99.4647C164.146 89.8533 162.806 79.6354 156.921 71.6796C154.379 68.2438 151.38 65.9062 147.727 63.7524C147.648 63.7057 147.568 63.6614 147.489 63.6176C147.04 63.3685 146.62 63.1353 146.497 62.5725C154.689 59.7692 162.792 56.3932 169.314 50.5254C172.478 47.679 177.992 41.0455 178.218 36.8483C177.848 36.254 177.732 36.1463 177.049 35.9454C175.633 35.5277 173.85 35.4715 172.362 35.4397C164.451 35.2686 157.772 38.8851 152.857 44.9402C152.565 45.2989 152.131 45.9746 151.646 46.7277C150.703 48.1953 149.57 49.9569 148.937 50.2406C148.881 50.2659 148.823 50.288 148.766 50.3099C148.735 50.3218 148.704 50.3336 148.674 50.346C149.202 48.1662 149.902 46.0043 150.602 43.8439C151.113 42.2676 151.623 40.692 152.066 39.1109L152.298 38.9279C157.882 34.4933 161.88 27.8179 162.656 20.6784C163.235 15.3638 161.978 10.715 158.632 6.53171C158.079 6.81917 157.532 7.11588 157.005 7.44619C152.266 10.4247 149.713 16.1804 148.572 21.4748C147.426 26.7917 147.162 34.4696 150.216 39.1916C148.295 45.2337 146.43 51.2934 144.621 57.3697C143.88 49.5476 141.561 41.698 137.466 34.9846C138.131 34.3802 138.747 33.7248 139.309 33.0245C141.654 30.1358 144.45 24.589 144.062 20.8084C143.635 20.2592 143.16 17.6931 142.756 15.5087C142.528 14.2767 142.322 13.1661 142.16 12.6074C141.367 9.86105 140.296 7.29305 139.074 4.71347C137.887 2.89032 136.124 1.42901 133.956 0.947892C131.268 0.351268 128.583 1.10827 126.33 2.613ZM129.156 62.9743C132.954 62.5994 136.46 62.9766 139.763 65.0557C145.096 68.4122 147.678 74.6946 149.018 80.5951C151.317 90.731 151.305 107.202 145.481 116.251C143.11 119.934 140.053 121.728 135.863 122.637C131.954 123.057 128.23 122.669 124.879 120.458C119.374 116.825 116.957 109.924 115.684 103.741C113.55 93.3858 113.259 78.4931 119.397 69.3192C121.854 65.6474 124.911 63.8477 129.156 62.9743Z" fill="#353C3A"></path>
      <path d="M122.451 6.68716C123.519 5.06896 124.704 3.69856 126.329 2.613C128.582 1.10827 131.267 0.351274 133.955 0.947896C136.123 1.42902 137.886 2.89032 139.073 4.71347C135.36 5.78861 134.093 7.21605 131.94 10.4102C131.374 11.9659 130.888 13.5936 130.751 15.2521C133.364 17.5549 135.043 20.1463 135.275 23.713C135.303 24.1392 135.334 24.2185 135.102 24.5638L134.152 24.283C133.306 24.9011 133.094 25.9542 132.936 26.9413C132.655 28.7043 132.613 30.6053 132.648 32.3894C130.468 31.7514 128.549 31.5299 126.28 31.6356C124.413 32.0976 122.651 32.6363 120.95 33.5664C120.351 32.6207 114.676 30.3164 113.184 29.1877C110.431 27.1043 109.07 24.3375 108.574 20.9604L108.562 20.6758C108.438 16.9131 109.347 13.5534 112.012 10.7854C114.809 7.88099 118.513 6.75403 122.451 6.68716Z" fill="#EAE9E8"></path>
      <path d="M122.451 6.68716C123.519 5.06896 124.704 3.69856 126.329 2.613C128.582 1.10827 131.267 0.351274 133.955 0.947896C136.123 1.42901 137.886 2.89032 139.073 4.71347C135.36 5.78861 134.093 7.21605 131.94 10.4102C131.374 11.9659 130.888 13.5936 130.751 15.2521L128.143 14.1998C127.102 14.2276 125.052 14.0186 124.161 14.4684L123.011 15.0274C122.568 15.4304 122.051 16.0377 121.541 16.331L120.578 17.994L119.911 18.0351C116.811 17.9796 113.883 18.3177 111.046 19.6565C110.244 20.0352 109.402 20.7091 108.574 20.9604L108.562 20.6758C108.438 16.9131 109.347 13.5534 112.012 10.7854C114.809 7.88099 118.513 6.75403 122.451 6.68716Z" fill="#DB8778"></path>
      <path d="M128.144 14.1998C128.619 12.9278 129.019 11.3638 129.999 10.3934C130.884 10.0356 131.062 10.1529 131.941 10.4102C131.374 11.9659 130.889 13.5936 130.752 15.2521L128.144 14.1998Z" fill="#353C3A"></path>
      <path d="M123.011 15.0272C122.074 14.3828 120.997 13.7251 120.238 12.8662C119.746 12.3095 119.489 11.7037 119.523 10.9614L120.016 10.7183C122.091 11.1733 122.979 12.8708 124.161 14.4682L123.011 15.0272Z" fill="#353C3A"></path>
      <path d="M119.91 18.0352C119.52 17.9869 119.08 17.9521 118.701 17.8404C118.068 17.6537 117.966 17.3914 117.725 16.8475C117.995 16.4688 118.06 16.3643 118.489 16.1759C119.525 15.7205 120.525 15.9512 121.54 16.331L120.577 17.9941L119.91 18.0352Z" fill="#353C3A"></path>
      <path d="M125.082 8.37451C125.432 8.52591 125.776 8.70655 125.997 9.03135C126.885 10.3355 126.737 12.9388 126.575 14.4499L125.341 14.0834C125.172 13.8981 125.041 13.7508 124.937 13.5195C124.209 11.9065 124.51 9.97969 125.082 8.37451Z" fill="#353C3A"></path>
      <path d="M119.912 18.0352L120.579 17.9941C119.766 21.0687 119.328 24.1783 121.03 27.0671C122.245 29.1291 124.215 30.5171 126.281 31.6357C124.414 32.0977 122.652 32.6364 120.951 33.5665C120.352 32.6208 114.677 30.3165 113.185 29.1878C110.432 27.1044 109.071 24.3376 108.575 20.9605C109.403 20.7092 110.245 20.0353 111.047 19.6566C113.885 18.3178 116.812 17.9797 119.912 18.0352Z" fill="#EBB19F"></path>
      <path d="M148.673 50.3457C148.76 50.3107 148.85 50.2794 148.937 50.2403C149.895 49.811 151.997 45.9977 152.856 44.9399C157.772 38.8848 164.45 35.2683 172.362 35.4394C173.85 35.4712 175.633 35.5274 177.048 35.9451C177.732 36.146 177.847 36.2537 178.218 36.848C177.992 41.0452 172.477 47.6787 169.313 50.5252C162.791 56.393 154.689 59.7689 146.496 62.5723C150.752 57.1835 155.731 51.8956 161.057 47.5635C162.91 46.0564 170.735 41.2675 171.302 40.2824C171.05 40.1183 171.016 40.0138 170.703 40.0593C163.628 41.0884 149.999 55.6235 145.767 61.119C146.303 57.3772 147.223 53.8435 148.673 50.3457Z" fill="#97A898"></path>
      <path d="M139.902 60.9945L139.995 60.7525C139.81 60.0285 138.657 59.8757 137.981 59.7408C128.418 57.8302 117.584 56.3747 111.149 48.1369C110.142 46.8478 108.371 44.2957 108.577 42.6767C109.942 41.5089 113.969 41.1019 115.717 41.0038C124.559 40.5061 132.908 45.2221 138.403 51.8891C139.72 53.4853 140.75 55.9763 142.224 57.2718L142.565 56.6361C142.716 57.5303 142.777 58.234 142.647 59.1421C141.584 58.8017 139.905 56.6201 138.906 55.8296C133.271 51.362 123.386 45.2861 115.927 45.5003L115.734 45.7634C117.592 47.2102 120.731 47.7852 122.947 48.5537C129.632 50.8728 137.086 55.27 141.347 61.0533L141.118 61.3103C140.748 61.2261 140.226 61.1778 139.902 60.9945Z" fill="#97A898"></path>
      <path d="M158.63 6.53174C161.977 10.715 163.233 15.3638 162.654 20.6784C161.878 27.8179 157.88 34.4934 152.296 38.9279L152.065 39.1109C153.356 32.7406 154.314 26.0254 156.207 19.8216C156.621 18.472 157.542 16.0351 156.859 14.7504L156.381 14.9415C153.466 19.5552 151.99 33.1426 150.215 39.1917C147.161 34.4696 147.424 26.7917 148.571 21.4748C149.711 16.1805 152.264 10.4247 157.003 7.44621C157.53 7.11591 158.077 6.81919 158.63 6.53174Z" fill="#97A898"></path>
      <path d="M131.94 10.4101C134.093 7.21595 135.36 5.78851 139.074 4.71338C140.295 7.29295 141.366 9.86095 142.159 12.6073C142.608 14.1566 143.393 19.9494 144.061 20.8083C141.688 21.288 140.04 22.5649 138.72 24.5744C137.986 25.6939 137.41 26.9696 136.879 28.1982C136.291 27.1103 135.339 25.7683 135.102 24.5637C135.334 24.2184 135.303 24.1391 135.275 23.7129C135.043 20.1462 133.364 17.5548 130.751 15.252C130.888 13.5935 131.374 11.9658 131.94 10.4101Z" fill="#EBB19F"></path>
      <path d="M245.183 60.4917C242.917 60.4242 240.659 60.549 238.401 60.7374C232.915 61.8438 226.327 63.7142 223.044 68.649C221.405 71.1119 220.676 74.1537 221.258 77.0767C221.686 79.2237 222.835 81.1864 224.694 82.3927C226.413 83.5081 228.883 84.0176 230.895 83.5665C232.565 83.1922 233.986 82.1087 234.887 80.6654C235.908 79.0266 236.207 76.9475 235.767 75.0743C235.495 73.9185 234.705 73.0087 233.937 72.1245C232.662 70.6557 231.448 69.2575 232.77 66.9193C233.847 65.0183 236.401 63.8855 238.427 63.4177C241.559 62.6946 245.302 62.9158 248.07 64.6718C250.776 66.3899 252.287 69.2123 252.956 72.2837C253.781 76.0936 253.975 81.6513 251.755 84.9781C249.74 87.9969 244.616 89.1823 238.859 90.514C230.608 92.4226 221.058 94.6318 217.503 102.969C216.136 106.174 216.545 109.464 216.853 111.94C217.024 113.317 217.164 114.442 216.95 115.162C216.988 115.211 217.026 115.26 217.063 115.31C217.508 115.91 217.868 116.556 218.229 117.204C218.492 117.676 218.755 118.149 219.052 118.604C221.524 122.404 224.859 124.056 229.268 124.735C235.92 125.76 243.296 124.3 248.753 120.257C250.055 119.292 252.464 117.123 252.721 115.449C252.744 115.479 252.766 115.508 252.787 115.537L252.814 115.576C253.612 116.772 253.896 117.968 254.164 119.092C254.726 121.458 255.214 123.509 260.242 124.578C264.014 125.38 269.856 124.974 273.202 122.749C273.888 122.294 274.595 121.586 274.728 120.744C274.746 120.634 274.75 120.552 274.75 120.464C274.75 120.394 274.747 120.321 274.745 120.227C274.689 120.173 274.641 120.127 274.599 120.085C274.35 119.842 274.304 119.796 273.851 119.808C273.187 119.825 272.507 119.946 271.828 120.068C270.1 120.376 268.376 120.685 266.932 119.274C264.79 117.183 264.832 112.341 264.858 109.235C264.86 108.995 264.862 108.765 264.862 108.548C264.914 101.832 264.929 95.1151 264.909 88.3986C264.883 73.2141 264.396 61.0628 245.183 60.4917ZM252.053 88.5271L252.881 88.5016L253.13 88.8484C253.368 90.78 253.3 92.7224 253.232 94.6643C253.2 95.5535 253.169 96.4426 253.167 97.3306C253.165 98.502 253.204 99.6946 253.244 100.895C253.34 103.765 253.437 106.682 252.962 109.451C252.695 111.016 252.122 112.513 251.28 113.859C249.427 116.812 246.367 118.648 243.001 119.367C239.014 120.218 235.885 119.337 232.533 117.187C232.329 116.825 232.132 116.479 231.942 116.146C229.982 112.707 228.811 110.654 229.207 106.063C229.953 97.3935 238.568 94.1722 245.641 91.528L246.185 91.3244L246.564 91.1819C246.83 91.082 247.124 90.977 247.434 90.8659L247.439 90.8643C248.923 90.3339 250.793 89.6658 251.81 88.7549C251.843 88.7253 251.876 88.695 251.908 88.6644C251.957 88.6188 252.004 88.5725 252.053 88.5271Z" fill="#353C3A"></path>
      <path d="M246.291 91.2842C246.204 91.3168 246.117 91.3495 246.029 91.3823L246.184 91.3244L246.291 91.2842Z" fill="#EAE9E8"></path>
      <path d="M47.0242 26.2544C48.427 26.1007 49.95 26.1525 51.3569 26.2911C56.7789 26.7818 61.7788 29.4225 65.2413 33.6234C67.5531 36.4777 68.8994 39.9385 68.478 43.6389C68.2313 45.8045 67.4222 47.8978 65.6651 49.2771C63.7872 50.7515 61.0968 51.4824 58.7297 51.1903C56.7363 50.9443 54.9965 49.89 53.781 48.2981C52.6989 46.8811 52.2276 44.7714 52.4922 43.0159C53.0732 39.1606 57.1112 38.806 59.6742 36.8636C60.3629 36.3419 60.6518 35.8128 60.776 34.9672C60.6194 33.9795 60.217 33.3351 59.5527 32.6192C57.0869 29.9626 53.3331 28.7373 49.7789 28.6484C46.7173 28.5714 43.6864 29.3877 41.4641 31.5837C36.157 36.8265 37.6128 53.3724 37.6285 60.5501C41.1816 60.5834 61.5246 59.955 63.3579 61.3045C63.538 61.902 63.4592 62.2482 63.3055 62.8455C61.9131 63.7976 41.1706 63.2933 37.6082 63.3448L37.6374 83.8743C39.4681 83.8781 41.3072 83.9015 43.1361 83.8251C56.0152 83.2869 52.1593 73.9902 55.2547 70.9113C55.5789 70.5888 55.7477 70.6771 56.1953 70.6771C57.0915 71.866 56.6871 94.0927 56.6865 97.4287C56.6964 98.2117 56.6402 98.978 56.5759 99.7573L56.0227 100.209C55.3063 100.217 55.1302 100.328 54.5701 99.8499C54.1324 96.2439 53.0987 91.6694 50.4071 89.0829C47.0699 85.8758 41.8928 86.5482 37.6371 86.6026C37.6125 92.729 36.258 115.051 40.1843 119.307C42.3328 121.637 46.2706 121.329 47.7841 123.225L47.7169 123.64C46.8757 124.106 45.8425 124.132 44.9 124.171C42.1936 124.283 17.8817 124.224 16.5461 123.818C16.2786 123.737 16.3817 123.721 16.1049 123.757C16.0525 123.763 16.0018 123.779 15.9506 123.791L15.8151 123.471C16.181 122.101 21.7472 121.017 23.3391 119.355C26.8282 115.713 25.5649 92.929 25.5301 86.6487C23.0788 86.6096 18.1741 87.4659 16.3333 85.9542C15.9911 85.2858 15.8962 85.1616 15.9735 84.4263C17.3335 83.2102 23.5715 83.7915 25.5064 83.7854C25.5377 76.9392 25.533 70.0926 25.4925 63.2461C22.5146 63.3017 18.5229 63.8262 15.8215 62.4008L15.75 61.5477C17.607 59.9975 23.0947 60.5672 25.5105 60.5863C25.4025 51.6949 25.531 41.1062 31.4283 33.8237C35.3317 29.0033 41.0449 26.8782 47.0242 26.2544Z" fill="#353C3A"></path>
      <path d="M90.1382 21.7505L90.4723 21.8162C90.9268 22.3483 90.9276 22.6337 90.9627 23.3117C91.343 30.6787 90.934 38.2834 90.9311 45.677L90.9186 92.4515C90.9178 98.0666 90.1119 113.171 91.8971 117.579C93.8786 122.471 98.5077 120.927 100 123.225L99.7667 123.837C98.4151 124.363 75.1844 124.08 71.4365 124.195C71.1398 124.194 71.1983 124.227 70.9771 124.139C70.4086 123.913 70.4236 123.689 70.1857 123.164C70.7478 121.234 74.8776 122.013 76.5618 120.139C78.0217 118.515 78.5905 116.356 78.8574 114.244C79.4109 109.866 79.2412 105.368 79.2395 100.963L79.2227 82.4129L79.2097 55.85C79.2166 49.953 79.3654 44.0206 79.0817 38.1302C78.77 31.6519 78.99 30.4436 72.5861 28.4618C71.9391 28.2615 71.0197 28.0456 70.54 27.5398C70.2381 27.2214 70.3281 27.1131 70.3209 26.7024L70.5901 26.7365C71.0967 26.1486 73.4221 26.0221 74.2349 25.9187C79.797 25.2107 85.0986 24.3139 90.1382 21.7505Z" fill="#353C3A"></path>
      <path d="M184.589 60.1387L185.461 60.2484C185.53 60.3569 185.643 60.5141 185.692 60.643C186.341 62.3341 185.984 73.6595 185.33 75.2007C186.265 74.3875 186.668 73.2392 187.223 72.1591C189.189 68.3408 191.618 64.9907 195.54 62.9866C199.616 60.9038 204.905 59.8188 209.325 61.3064C211.78 62.1323 213.763 63.8267 214.889 66.1674C216.062 68.6092 216.293 71.4835 215.35 74.0405C214.58 76.121 213.034 77.9768 210.996 78.9072C209.065 79.7887 206.923 79.7128 204.969 78.9327C202.994 78.1436 201.321 76.7335 200.516 74.7323C198.965 70.8836 201.052 69.4918 202.253 66.3275C202.488 65.7152 202.444 65.5262 202.175 64.9522C201.35 64.5547 200.485 64.7246 199.631 64.9296C188.758 67.537 186.207 80.3871 185.987 89.9764C185.932 92.3386 186.019 100.618 186.019 100.618C186.019 100.618 185.929 108.577 186.019 110.863C186.236 116.417 186.618 120.184 192.559 121.966C193.427 122.226 194.533 122.388 195.196 123.04C195.372 123.212 195.286 123.527 195.283 123.763C195.216 123.814 195.149 123.868 195.083 123.916C194.715 124.169 167.049 124.265 165.515 123.88L165.33 123.243C165.97 120.828 170.619 122.037 172.411 119.756C173.302 118.621 173.647 117.141 173.849 115.742C174.941 108.232 174.414 100.117 174.397 92.5137C174.382 86.2152 174.784 79.5059 173.928 73.2829C172.738 64.6236 169.585 68.6891 166.004 65.9616C165.692 65.2781 165.741 65.2052 165.912 64.4621C172.011 63.3073 178.782 63.2555 184.389 60.2478L184.589 60.1387Z" fill="#353C3A"></path>
    </g>
    <defs>
      <clipPath id="clip0_8203_61210">
        <rect width="259" height="124.736" fill="white" transform="translate(15.75 0.743652)"></rect>
      </clipPath>
    </defs>
  </symbol>
  <symbol fill="none" xmlns="http://www.w3.org/2000/svg" viewBox="0 0 24 24" id="map">
    <path d="M12.0001 14C14.2061 14 16.0001 12.206 16.0001 10C16.0001 7.794 14.2061 6 12.0001 6C9.79406 6 8.00006 7.794 8.00006 10C8.00006 12.206 9.79406 14 12.0001 14ZM12.0001 8C13.1031 8 14.0001 8.897 14.0001 10C14.0001 11.103 13.1031 12 12.0001 12C10.8971 12 10.0001 11.103 10.0001 10C10.0001 8.897 10.8971 8 12.0001 8Z" fill="#030C01"></path>
    <path d="M11.4201 21.814C11.5893 21.9349 11.7921 21.9998 12.0001 21.9998C12.2081 21.9998 12.4108 21.9349 12.5801 21.814C12.8841 21.599 20.0291 16.44 20.0001 10C20.0001 5.589 16.4111 2 12.0001 2C7.58909 2 4.00009 5.589 4.00009 9.995C3.97109 16.44 11.1161 21.599 11.4201 21.814ZM12.0001 4C15.3091 4 18.0001 6.691 18.0001 10.005C18.0211 14.443 13.6121 18.428 12.0001 19.735C10.3891 18.427 5.97909 14.441 6.00009 10C6.00009 6.691 8.69109 4 12.0001 4Z" fill="#030C01"></path>
  </symbol>
  <symbol fill="none" xmlns="http://www.w3.org/2000/svg" viewBox="0 0 24 24" id="menu">
    <path d="M4 6H20V8H4V6ZM4 11H20V13H4V11ZM4 16H20V18H4V16Z" fill="#030C01"></path>
  </symbol>
  <symbol fill="none" xmlns="http://www.w3.org/2000/svg" viewBox="0 0 24 24" id="phone">
    <path d="M17.7073 12.293C17.6145 12.2 17.5043 12.1263 17.383 12.076C17.2617 12.0257 17.1317 11.9998 17.0003 11.9998C16.869 11.9998 16.739 12.0257 16.6176 12.076C16.4963 12.1263 16.3861 12.2 16.2933 12.293L14.6993 13.887C13.9603 13.667 12.5813 13.167 11.7073 12.293C10.8333 11.419 10.3333 10.04 10.1133 9.30096L11.7073 7.70696C11.8003 7.61417 11.874 7.50397 11.9243 7.38265C11.9746 7.26134 12.0005 7.13129 12.0005 6.99996C12.0005 6.86862 11.9746 6.73858 11.9243 6.61726C11.874 6.49595 11.8003 6.38575 11.7073 6.29296L7.70733 2.29296C7.61455 2.20001 7.50434 2.12627 7.38303 2.07596C7.26171 2.02565 7.13167 1.99976 7.00033 1.99976C6.869 1.99976 6.73896 2.02565 6.61764 2.07596C6.49633 2.12627 6.38612 2.20001 6.29333 2.29296L3.58133 5.00496C3.20133 5.38496 2.98733 5.90696 2.99533 6.43996C3.01833 7.86396 3.39533 12.81 7.29333 16.708C11.1913 20.606 16.1373 20.982 17.5623 21.006H17.5903C18.1183 21.006 18.6173 20.798 18.9953 20.42L21.7073 17.708C21.8003 17.6152 21.874 17.505 21.9243 17.3837C21.9746 17.2623 22.0005 17.1323 22.0005 17.001C22.0005 16.8696 21.9746 16.7396 21.9243 16.6183C21.874 16.4969 21.8003 16.3867 21.7073 16.294L17.7073 12.293ZM17.5803 19.005C16.3323 18.984 12.0623 18.649 8.70733 15.293C5.34133 11.927 5.01533 7.64196 4.99533 6.41896L7.00033 4.41396L9.58633 6.99996L8.29333 8.29296C8.1758 8.41041 8.08938 8.55529 8.04189 8.71453C7.9944 8.87376 7.98733 9.04231 8.02133 9.20496C8.04533 9.31996 8.63233 12.047 10.2923 13.707C11.9523 15.367 14.6793 15.954 14.7943 15.978C14.9569 16.0129 15.1256 16.0064 15.285 15.9591C15.4444 15.9117 15.5893 15.825 15.7063 15.707L17.0003 14.414L19.5863 17L17.5803 19.005Z" fill="#030C01"></path>
  </symbol>
  <symbol fill="none" xmlns="http://www.w3.org/2000/svg" viewBox="0 0 24 24" id="right-arrow-alt">
    <path d="M11.293 17.293L12.707 18.707L19.414 12L12.707 5.29297L11.293 6.70697L15.586 11H6V13H15.586L11.293 17.293Z" fill="#030C01"></path>
  </symbol>
  <symbol fill="none" xmlns="http://www.w3.org/2000/svg" viewBox="0 0 24 24" id="top-arrow-alt">
    <path d="M18 13.414L19.414 12L12.707 5.29303L6 12L7.414 13.414L11.707 9.12103V18.707H13.707V9.12103L18 13.414Z" fill="#030C01"></path>
  </symbol>
  <symbol fill="none" xmlns="http://www.w3.org/2000/svg" viewBox="0 0 24 24" id="twitter">
    <path d="M17.1761 4.24268H19.9362L13.9061 11.0201L21 20.2427H15.4456L11.0951 14.6493L6.11723 20.2427H3.35544L9.80517 12.9935L3 4.24268H8.69545L12.6279 9.3553L17.1761 4.24268ZM16.2073 18.6181H17.7368L7.86441 5.78196H6.2232L16.2073 18.6181Z" fill="#030C01"></path>
  </symbol>
  <symbol fill="none" xmlns="http://www.w3.org/2000/svg" viewBox="0 0 24 24" id="x">
    <path d="M16.192 6.34424L11.949 10.5862L7.70697 6.34424L6.29297 7.75824L10.535 12.0002L6.29297 16.2422L7.70697 17.6562L11.949 13.4142L16.192 17.6562L17.606 16.2422L13.364 12.0002L17.606 7.75824L16.192 6.34424Z" fill="#030C01"></path>
  </symbol>
  <symbol fill="none" xmlns="http://www.w3.org/2000/svg" viewBox="0 0 24 24" id="facebook">
    <path d="M22 12.3038C22 6.74719 17.5229 2.24268 12 2.24268C6.47715 2.24268 2 6.74719 2 12.3038C2 17.3255 5.65684 21.4879 10.4375 22.2427V15.2121H7.89844V12.3038H10.4375V10.0872C10.4375 7.56564 11.9305 6.1728 14.2146 6.1728C15.3088 6.1728 16.4531 6.36931 16.4531 6.36931V8.84529H15.1922C13.95 8.84529 13.5625 9.6209 13.5625 10.4166V12.3038H16.3359L15.8926 15.2121H13.5625V22.2427C18.3432 21.4879 22 17.3257 22 12.3038Z" fill="#030C01"></path>
  </symbol>
  <symbol fill="none" xmlns="http://www.w3.org/2000/svg" viewBox="0 0 96 85" id="flower-icon">
    <path d="M19.1546 8.17091C20.6272 5.9463 22.2601 4.06228 24.4992 2.56996C27.6042 0.501308 31.3029 -0.539436 35.008 0.280782C37.995 0.942238 40.4248 2.95119 42.0607 5.45761C43.744 9.00385 45.2199 12.5343 46.3128 16.3098C46.536 17.0779 46.8191 18.6047 47.1332 20.2984C47.6902 23.3009 48.3448 26.8295 48.9336 27.5843C49.4682 32.7817 45.6147 40.4072 42.3836 44.3786C41.6098 45.3412 40.7602 46.2422 39.8443 47.0732C45.4873 56.3025 48.6824 67.0938 49.7035 77.8473C52.1966 69.4939 54.7658 61.1633 57.4142 52.8569C53.2058 46.3652 53.5689 35.8099 55.1486 28.5004C56.7203 21.2219 60.2384 13.3091 66.7684 9.2144C67.4945 8.76032 68.2483 8.35244 69.0103 7.9572C73.6216 13.7083 75.353 20.0993 74.555 27.4055C73.486 37.2206 67.9771 46.3979 60.2825 52.4943L59.9632 52.7458C59.3523 54.9196 58.6491 57.0856 57.9458 59.2527C56.9814 62.2227 56.0166 65.1948 55.2881 68.1914C55.3301 68.1745 55.3727 68.1582 55.4152 68.1419C55.4943 68.1118 55.5733 68.0814 55.6511 68.0465C56.5236 67.6565 58.0844 65.2347 59.3846 63.2172C60.0517 62.1818 60.6504 61.2529 61.0522 60.7597C67.8256 52.4354 77.0284 47.4636 87.9303 47.6988C89.9806 47.7425 92.4378 47.8198 94.3885 48.394C95.3299 48.6702 95.4892 48.8183 96 49.6353C95.6887 55.4055 88.0896 64.5249 83.7299 68.4381C74.7427 76.5049 63.5771 81.1461 52.2885 85C51.8289 84.8979 51.5733 84.8411 51.0555 84.7261L47.1046 83.8485L45.0722 83.397L43.2016 82.8307L43.329 82.498C43.096 81.5897 41.7535 81.3353 40.8121 81.1567L40.8001 81.1544C40.714 81.1382 40.6315 81.1225 40.5537 81.1071C39.4512 80.8874 38.3363 80.672 37.2141 80.4551L37.1961 80.4517C24.9079 78.078 11.7018 75.5269 3.58031 65.1545C2.19252 63.3823 -0.248301 59.8739 0.0357965 57.648C1.91672 56.0426 7.4664 55.483 9.87464 55.3481C22.0588 54.664 33.564 61.1474 41.1351 70.313C41.8886 71.2241 42.5742 72.3473 43.2636 73.4769C44.2345 75.0678 45.2133 76.6713 46.4007 77.7128L46.8714 76.8388C45.5511 66.514 43.1496 57.2672 37.457 48.4625C33.4645 49.6429 29.7615 49.9831 25.613 49.2238C22.9632 48.7383 18.6869 47.4055 17.0863 45.1236C16.6214 44.3913 13.9379 43.0666 11.315 41.7719C9.28106 40.7677 7.28359 39.7816 6.38565 39.1039C2.59182 36.2397 0.715654 32.4359 0.0327456 27.7932L0.0166369 27.4019C-0.154945 22.2292 1.0975 17.6103 4.7704 13.805C8.62427 9.81214 13.7288 8.26286 19.1546 8.17091Z" fill="#353C3A"></path>
    <path d="M19.1533 8.17091C20.6261 5.94627 22.2588 4.06229 24.4982 2.56991C27.6029 0.501267 31.3019 -0.539427 35.0068 0.280787C37.9938 0.942211 40.4235 2.95115 42.0594 5.45756C36.9419 6.93562 35.1967 8.89801 32.2293 13.2892C31.449 15.4279 30.7805 17.6657 30.5914 19.9456C34.1919 23.1115 36.5055 26.6741 36.825 31.5774C36.8633 32.1633 36.9068 32.2723 36.5861 32.7471L35.2777 32.361C34.1117 33.2107 33.8197 34.6585 33.6023 36.0156C33.2146 38.4392 33.1575 41.0527 33.2054 43.5054C30.2013 42.6282 27.5566 42.3238 24.43 42.4691C21.8571 43.1042 19.4294 43.8448 17.085 45.1235C16.2597 43.8233 8.44006 40.6555 6.38452 39.1038C2.59058 36.2397 0.714539 32.4359 0.031621 27.7932L0.0152842 27.402C-0.156243 22.2292 1.09629 17.6103 4.76937 13.805C8.62315 9.81214 13.7275 8.26284 19.1533 8.17091Z" fill="#EAE9E8"></path>
    <path d="M19.1533 8.17091C20.6261 5.94627 22.2588 4.06229 24.4982 2.56991C27.6029 0.501267 31.3019 -0.539427 35.0068 0.280787C37.9938 0.942211 40.4235 2.95115 42.0594 5.45756C36.9419 6.93562 35.1967 8.89801 32.2293 13.2892C31.449 15.4279 30.7805 17.6657 30.5914 19.9456L26.9973 18.499C25.5633 18.5372 22.7382 18.2499 21.51 18.8683L19.926 19.6368C19.3153 20.1908 18.602 21.0257 17.9 21.4288L16.5729 23.7152L15.6538 23.7717C11.3816 23.6953 7.34786 24.1601 3.43784 26.0007C2.33248 26.5213 1.17248 27.4477 0.031621 27.7932L0.0152842 27.402C-0.156243 22.2292 1.09629 17.6103 4.76937 13.805C8.62315 9.81214 13.7275 8.26284 19.1533 8.17091Z" fill="#DB8778"></path>
    <path d="M26.9984 18.499C27.6526 16.7503 28.2039 14.6001 29.555 13.2661C30.7744 12.7742 31.0197 12.9354 32.2304 13.2892C31.4501 15.4279 30.7816 17.6656 30.5925 19.9456L26.9984 18.499Z" fill="#353C3A"></path>
    <path d="M19.926 19.6368C18.6347 18.7509 17.1496 17.8467 16.1045 16.6659C15.4268 15.9006 15.0717 15.0677 15.1192 14.0473L15.7985 13.713C18.6583 14.3386 19.8809 16.6723 21.51 18.8683L19.926 19.6368Z" fill="#353C3A"></path>
    <path d="M15.6529 23.7716C15.1148 23.7052 14.5084 23.6574 13.9863 23.5038C13.1139 23.2471 12.9735 22.8866 12.642 22.1388C13.0141 21.6182 13.1031 21.4746 13.6939 21.2155C15.1219 20.5895 16.5001 20.9066 17.8991 21.4288L16.572 23.7151L15.6529 23.7716Z" fill="#353C3A"></path>
    <path d="M22.7792 10.4906C23.2619 10.6988 23.7354 10.9471 24.0405 11.3936C25.2643 13.1865 25.0593 16.7654 24.8371 18.8428L23.1362 18.339C22.9032 18.0843 22.7225 17.8817 22.5789 17.5637C21.5765 15.3463 21.9906 12.6974 22.7792 10.4906Z" fill="#353C3A"></path>
    <path d="M15.6555 23.7717L16.5746 23.7152C15.4544 27.942 14.8505 32.217 17.1956 36.1883C18.8694 39.0231 21.5847 40.9313 24.4317 42.4691C21.8588 43.1042 19.4311 43.8449 17.0867 45.1235C16.2614 43.8234 8.44176 40.6555 6.38623 39.1039C2.59228 36.2397 0.716243 32.4359 0.0333252 27.7932C1.17418 27.4478 2.33419 26.5213 3.43954 26.0007C7.34956 24.1601 11.3833 23.6953 15.6555 23.7717Z" fill="#EBB19F"></path>
    <path d="M55.2879 68.1913C55.4076 68.1432 55.5312 68.1002 55.6509 68.0465C56.9713 67.4563 59.8673 62.2138 61.052 60.7597C67.8254 52.4354 77.028 47.4635 87.93 47.6987C89.9803 47.7425 92.4375 47.8197 94.3881 48.394C95.3296 48.6702 95.4891 48.8182 95.9997 49.6352C95.6886 55.4054 88.0895 64.5248 83.7295 68.4381C74.7423 76.5049 63.577 81.146 52.2881 84.9999C58.152 77.5918 65.0131 70.3221 72.3529 64.3665C74.9058 62.2946 85.6881 55.711 86.47 54.3567C86.1229 54.1311 86.075 53.9874 85.6442 54.0499C75.8951 55.4647 57.1149 75.4471 51.283 83.0021C52.0209 77.858 53.2894 73 55.2879 68.1913Z" fill="#97A898"></path>
    <path d="M43.2014 82.8306L43.3291 82.4979C43.0738 81.5026 41.4861 81.2925 40.5535 81.107C27.3762 78.4805 12.4478 76.4795 3.58021 65.1545C2.19244 63.3823 -0.248431 59.8738 0.035586 57.648C1.9168 56.0426 7.4663 55.483 9.87446 55.3481C22.0589 54.664 33.564 61.1473 41.1351 70.3129C42.9501 72.5073 44.3702 75.9319 46.4006 77.7128L46.8713 76.8388C47.0787 78.0682 47.1625 79.0356 46.983 80.284C45.5191 79.816 43.2054 76.8169 41.8292 75.7301C34.0634 69.5882 20.4418 61.2353 10.1637 61.5298L9.89801 61.8915C12.4582 63.8806 16.7842 64.6709 19.8378 65.7275C29.0496 68.9157 39.3209 74.9608 45.192 82.9114L44.8768 83.2648C44.3662 83.149 43.6482 83.0826 43.2014 82.8306Z" fill="#97A898"></path>
    <path d="M69.0083 7.95712C73.6196 13.7082 75.3508 20.0991 74.553 27.4055C73.484 37.2206 67.9751 46.3977 60.2804 52.4942L59.9613 52.7457C61.7404 43.988 63.0607 34.7563 65.6695 26.2275C66.2399 24.3721 67.5084 21.022 66.567 19.2559L65.9088 19.5185C61.8919 25.8613 59.8575 44.5408 57.4123 52.8568C53.2039 46.3651 53.5669 35.8098 55.1465 28.5003C56.7182 21.2218 60.2365 13.309 66.7665 9.2143C67.4925 8.76022 68.2464 8.35231 69.0083 7.95712Z" fill="#97A898"></path>
    <path d="M32.2293 13.2892C35.1967 8.89803 36.9419 6.93564 42.0594 5.45758C43.7428 9.00388 45.2187 12.5343 46.3117 16.3098C46.93 18.4397 48.011 26.4035 48.9325 27.5842C45.6615 28.2437 43.3918 29.9991 41.5728 32.7618C40.5604 34.3008 39.7677 36.0546 39.0353 37.7436C38.2252 36.248 36.914 34.403 36.5861 32.7471C36.9068 32.2723 36.8633 32.1633 36.825 31.5775C36.5055 26.6741 34.1919 23.1115 30.5914 19.9456C30.7805 17.6657 31.4491 15.4279 32.2293 13.2892Z" fill="#EBB19F"></path>
  </symbol>
  <symbol fill="none" xmlns="http://www.w3.org/2000/svg" viewBox="0 0 24 24" id="instagram">
    <path d="M11.9988 4.62091C14.4032 4.62091 14.6878 4.63159 15.6332 4.67378C16.5123 4.71258 16.9864 4.85994 17.303 4.98311C17.7215 5.14509 18.0235 5.34194 18.3362 5.65465C18.6528 5.97129 18.8458 6.26994 19.0111 6.68838C19.1343 7.00503 19.2816 7.48253 19.3204 8.35822C19.3626 9.3076 19.3733 9.59218 19.3733 11.9932C19.3733 14.3942 19.3626 14.6821 19.3204 15.6281C19.2816 16.5072 19.1343 16.9813 19.0111 17.298C18.8491 17.7164 18.6528 18.0184 18.3396 18.3311C18.0229 18.6478 17.7243 18.8407 17.3064 19.0061C16.9898 19.1292 16.5117 19.2766 15.6366 19.3154C14.6872 19.3576 14.4026 19.3683 12.0016 19.3683C9.60062 19.3683 9.31266 19.3576 8.36666 19.3154C7.48759 19.2766 7.01346 19.1292 6.69682 19.0061C6.27838 18.8441 5.97635 18.6478 5.66308 18.3345C5.34644 18.0179 5.15353 17.7192 4.98817 17.3013C4.865 16.9847 4.71765 16.5066 4.67884 15.6315C4.63666 14.6821 4.62597 14.3975 4.62597 11.9965C4.62597 9.59556 4.63666 9.3076 4.67884 8.3616C4.71765 7.48253 4.865 7.0084 4.98817 6.69176C5.15015 6.27331 5.347 5.97129 5.65971 5.65802C5.97635 5.34137 6.275 5.14846 6.69344 4.98311C7.01009 4.85994 7.48759 4.71258 8.36328 4.67378C9.30872 4.63159 9.59387 4.62091 11.9982 4.62091H11.9988ZM11.9988 3.00056C9.55563 3.00056 9.25023 3.01125 8.29017 3.05343C7.33405 3.09561 6.67657 3.25028 6.1074 3.47187C5.51348 3.70359 5.01067 4.00955 4.5118 4.51236C4.00899 5.01179 3.70303 5.51404 3.47131 6.10459C3.24972 6.6777 3.09505 7.33123 3.05287 8.28736C3.01069 9.25079 3 9.55619 3 11.9994C3 14.4425 3.01069 14.7479 3.05287 15.708C3.09505 16.6641 3.24972 17.3216 3.47131 17.8908C3.70359 18.4847 4.00899 18.9875 4.5118 19.4864C5.01067 19.9852 5.51348 20.2951 6.10402 20.5235C6.67713 20.7451 7.33067 20.8997 8.28679 20.9419C9.24629 20.9841 9.55225 20.9948 11.9954 20.9948C14.4386 20.9948 14.7446 20.9841 15.7041 20.9419C16.6602 20.8997 17.3177 20.7451 17.8868 20.5235C18.4774 20.2951 18.9802 19.9858 19.4791 19.4864C19.9779 18.9869 20.2878 18.4847 20.5162 17.8941C20.7378 17.321 20.8924 16.6675 20.9346 15.7114C20.9768 14.7519 20.9875 14.4459 20.9875 12.0027C20.9875 9.55956 20.9768 9.25417 20.9346 8.29411C20.8924 7.33798 20.7378 6.68051 20.5162 6.11133C20.2946 5.51348 19.9886 5.01123 19.4864 4.5118C18.9875 4.01293 18.4847 3.70303 17.8941 3.47469C17.321 3.25309 16.6675 3.09842 15.7114 3.05624C14.7485 3.01069 14.4425 3 11.9994 3L11.9988 3.00056Z" fill="black"></path>
    <path d="M11.9985 7.37671C9.44683 7.37671 7.37598 9.447 7.37598 11.9993C7.37598 14.5516 9.44626 16.6219 11.9985 16.6219C14.5508 16.6219 16.6211 14.5516 16.6211 11.9993C16.6211 9.44756 14.5508 7.37671 11.9985 7.37671ZM11.9985 14.9976C10.3428 14.9976 9.00026 13.6551 9.00026 11.9993C9.00026 10.3435 10.3428 9.00099 11.9985 9.00099C13.6543 9.00099 14.9968 10.3435 14.9968 11.9993C14.9968 13.6551 13.6543 14.9976 11.9985 14.9976Z" fill="black"></path>
    <path d="M17.8822 7.19404C17.8822 7.79021 17.3991 8.27333 16.8029 8.27333C16.2068 8.27333 15.7236 7.79021 15.7236 7.19404C15.7236 6.59787 16.2068 6.11475 16.8029 6.11475C17.3991 6.11475 17.8822 6.59787 17.8822 7.19404Z" fill="black"></path>
  </symbol>
</svg>